<?xml version="1.0" standalone="no"?>
<!DOCTYPE svg PUBLIC "-//W3C//DTD SVG 20010904//EN"
 "http://www.w3.org/TR/2001/REC-SVG-20010904/DTD/svg10.dtd">
<svg version="1.0" xmlns="http://www.w3.org/2000/svg"
 width="70.000000pt" height="70.000000pt" viewBox="0 0 70.000000 70.000000"
 preserveAspectRatio="xMidYMid meet">
<metadata>
Created by potrace 1.11, written by Peter Selinger 2001-2013
</metadata>
<g transform="translate(0.000000,70.000000) scale(0.100000,-0.100000)"
fill="#000000" stroke="none">
<path d="M424 550 c-12 -5 -36 -26 -54 -48 l-31 -39 -28 28 c-48 47 -110 50
-152 8 -18 -18 -20 -30 -17 -70 6 -57 83 -187 164 -277 l52 -57 22 20 c42 38
160 227 176 282 15 51 15 58 -1 99 -9 24 -25 49 -35 54 -22 12 -67 12 -96 0z"/>
</g>
</svg>
